<svg width="30" height="30" viewBox="0 0 30 30" fill="none" xmlns="http://www.w3.org/2000/svg">
<path opacity="0.4" fill-rule="evenodd" clip-rule="evenodd" d="M11.1838 6.35192H18.8621V4.56415H11.1838V6.35192ZM9.43707 4.63757V4.64647C8.83768 4.70098 8.24473 4.82001 7.66786 4.99912V4.99245C7.65071 4.99966 7.63457 5.00521 7.61907 5.01054C7.59873 5.01753 7.57951 5.02414 7.56064 5.03361C7.51453 5.04474 7.4695 5.06142 7.42661 5.08256C7.30008 5.12372 7.17356 5.17267 7.05454 5.22274C7.02291 5.23497 6.99128 5.24916 6.95965 5.26334C6.92801 5.27753 6.89638 5.29171 6.86475 5.30395C6.82133 5.32453 6.77602 5.34706 6.73072 5.36958C6.68542 5.39211 6.64012 5.41464 6.59669 5.43522L6.38224 5.55871C6.34259 5.57893 6.30589 5.60265 6.26844 5.62685C6.24614 5.64126 6.22357 5.65584 6.19996 5.66996C5.87721 5.87799 5.57806 6.12163 5.30785 6.39864L5.29177 6.41532C5.25628 6.4567 5.22094 6.49684 5.18608 6.53643C5.1272 6.60331 5.06968 6.66864 5.01513 6.73572L4.99905 6.7513C4.12195 7.96169 3.68233 9.45354 3.75846 10.9654V11.4449H5.49013V10.961C5.49013 8.8539 6.16136 7.54228 7.655 6.87033C8.22543 6.62892 8.82803 6.47985 9.44136 6.42534H9.45744V4.64535L9.43707 4.63757ZM24.9975 6.72905L25.005 6.74462C25.881 7.95613 26.3185 9.44909 26.2413 10.961V11.4449H24.5107V10.9487C24.5471 10.0565 24.3681 9.16874 23.9885 8.36663C23.6239 7.68023 23.0406 7.14734 22.3362 6.8581C21.7754 6.61669 21.1814 6.4665 20.5755 6.4131V4.64202C21.1749 4.69764 21.7679 4.81556 22.3458 4.99468V4.98578C22.3783 5.00051 22.4031 5.00927 22.4456 5.02431L22.453 5.02694C22.4728 5.03392 22.4912 5.0409 22.5094 5.0478C22.5347 5.05739 22.5596 5.06683 22.5871 5.07589C22.7056 5.11478 22.8165 5.16063 22.9306 5.20779L22.9506 5.21606C23.0032 5.23455 23.0528 5.25748 23.0975 5.27814C23.1119 5.28483 23.1259 5.29128 23.1393 5.29727C23.2336 5.33843 23.3301 5.38738 23.4073 5.42855C23.4588 5.45526 23.509 5.48386 23.556 5.51067C23.5814 5.52517 23.606 5.53915 23.6293 5.55203C23.6677 5.57325 23.7011 5.59595 23.7332 5.61777C23.7567 5.63372 23.7795 5.64919 23.803 5.66328C24.1268 5.87243 24.4292 6.11718 24.7026 6.39196L24.7123 6.40865C24.813 6.50989 24.9085 6.61669 24.9975 6.72905Z" fill="#5669FF"/>
<path d="M20.6252 3.39616V7.33558C20.6252 7.83193 20.2225 8.23396 19.7252 8.23396C19.228 8.23396 18.8252 7.83193 18.8252 7.33558V3.40514C18.8207 2.90879 19.2212 2.50339 19.7185 2.50002C20.2157 2.49665 20.6219 2.89531 20.6252 3.39167V3.39616Z" fill="#5669FF"/>
<path d="M11.175 3.41043V7.34011C11.175 7.83862 10.7718 8.24281 10.2744 8.24281C9.77712 8.24281 9.375 7.83862 9.375 7.34011V3.41043C9.375 2.91192 9.77712 2.50885 10.2744 2.50885C10.7718 2.50885 11.175 2.91192 11.175 3.41043Z" fill="#5669FF"/>
<path fill-rule="evenodd" clip-rule="evenodd" d="M3.75 21.1377V11.4449H26.25V21.1377C26.25 25.3645 23.8895 27.5 19.2114 27.5H10.7779C6.11052 27.5 3.75 25.3645 3.75 21.1377ZM8.82513 16.8335C8.82513 17.4199 9.2865 17.8957 9.85517 17.8957C10.4346 17.8957 10.8959 17.4088 10.8852 16.8224C10.8852 16.236 10.4238 15.7602 9.8659 15.7602H9.85517C9.2865 15.7602 8.82513 16.247 8.82513 16.8335ZM13.9646 16.8335C13.9646 17.4199 14.4367 17.8957 15.0054 17.8957C15.574 17.8957 16.0354 17.4199 16.0354 16.8224C16.0354 16.247 15.574 15.7712 15.0054 15.7602H14.9946C14.426 15.7712 13.9646 16.247 13.9646 16.8335ZM20.1449 17.8957C19.5762 17.8957 19.1148 17.4199 19.1148 16.8335C19.1148 16.247 19.5655 15.7712 20.1449 15.7712C20.7135 15.7712 21.1749 16.247 21.1749 16.8335C21.1749 17.4199 20.7135 17.8957 20.1449 17.8957ZM20.1449 22.4323C19.5762 22.4323 19.1148 21.9565 19.1041 21.37C19.1041 20.7836 19.5655 20.3078 20.1341 20.3078H20.1449C20.7135 20.3078 21.1749 20.7836 21.1749 21.37C21.1749 21.9565 20.7135 22.4323 20.1449 22.4323ZM15.0054 22.4323C14.4367 22.4323 13.9646 21.9565 13.9646 21.3701C13.9646 20.7836 14.426 20.3078 14.9946 20.2968H15.0054C15.574 20.3078 16.0247 20.7836 16.0354 21.359C16.0354 21.9565 15.574 22.4323 15.0054 22.4323ZM9.85515 22.4323C9.28648 22.4323 8.82511 21.9565 8.82511 21.3701C8.81438 20.7836 9.27575 20.2968 9.85515 20.2968C10.4238 20.2968 10.8852 20.7725 10.8852 21.359C10.8852 21.9454 10.4238 22.4323 9.85515 22.4323Z" fill="#5669FF"/>
</svg>
