<svg width="19" height="19" viewBox="0 0 19 19" fill="none" xmlns="http://www.w3.org/2000/svg">
<path d="M9.5 0.15625C4.34791 0.15625 0.15625 4.34791 0.15625 9.5C0.15625 14.6521 4.34791 18.8438 9.5 18.8438C14.6521 18.8438 18.8438 14.6521 18.8438 9.5C18.8438 4.34791 14.6521 0.15625 9.5 0.15625ZM14.2199 5.24725L12.114 10.5121C11.9694 10.8737 11.7528 11.2021 11.4775 11.4775C11.2021 11.7528 10.8737 11.9694 10.5121 12.114L5.24725 14.2199C5.18194 14.2461 5.11039 14.2525 5.04148 14.2383C4.97257 14.2242 4.90932 14.1902 4.85958 14.1404C4.80984 14.0907 4.77579 14.0274 4.76165 13.9585C4.74752 13.8896 4.75392 13.8181 4.78006 13.7528L6.886 8.48791C7.0306 8.12632 7.24715 7.79788 7.52252 7.52252C7.79788 7.24715 8.12632 7.0306 8.48791 6.886L13.7528 4.78006C13.8181 4.75392 13.8896 4.74752 13.9585 4.76165C14.0274 4.77579 14.0907 4.80984 14.1404 4.85958C14.1902 4.90932 14.2242 4.97257 14.2383 5.04148C14.2525 5.11039 14.2461 5.18194 14.2199 5.24725V5.24725Z" fill="#DADADA"/>
</svg>
