<svg width="19" height="21" viewBox="0 0 19 21" fill="none" xmlns="http://www.w3.org/2000/svg">
<path fill-rule="evenodd" clip-rule="evenodd" d="M13.7271 1.65322L13.728 2.37161C16.3679 2.5785 18.1117 4.37735 18.1146 7.13597L18.125 15.2107C18.1288 18.2183 16.2392 20.0689 13.2105 20.0737L5.81222 20.0833C2.80239 20.0871 0.889199 18.1925 0.885414 15.1762L0.875006 7.19632C0.871222 4.4195 2.55355 2.62544 5.19341 2.3831L5.19247 1.66471C5.19152 1.24326 5.50376 0.926207 5.92009 0.926207C6.33641 0.925249 6.64865 1.24134 6.6496 1.6628L6.65055 2.33329L12.2709 2.32563L12.27 1.65513C12.269 1.23368 12.5813 0.917586 12.9976 0.916628C13.4044 0.91567 13.7261 1.23176 13.7271 1.65322ZM2.3331 7.49223L16.6584 7.47308V7.13783C16.6177 5.07844 15.5845 3.99799 13.7299 3.83707L13.7309 4.57461C13.7309 4.98649 13.4101 5.31312 13.0033 5.31312C12.587 5.31408 12.2738 4.98841 12.2738 4.57653L12.2728 3.80067L6.65245 3.80833L6.6534 4.58323C6.6534 4.99607 6.3421 5.32174 5.92578 5.32174C5.50946 5.3227 5.19627 4.99798 5.19627 4.58515L5.19532 3.8476C3.35025 4.03247 2.32931 5.11676 2.33215 7.19434L2.3331 7.49223ZM12.605 11.8457V11.8562C12.6144 12.2968 12.974 12.6311 13.4102 12.6215C13.836 12.611 14.1757 12.246 14.1662 11.8054C14.1463 11.384 13.8048 11.0401 13.3799 11.0411C12.9447 11.0506 12.604 11.405 12.605 11.8457ZM13.3864 16.1464C12.9512 16.1368 12.6002 15.7738 12.5992 15.3332C12.5897 14.8926 12.9389 14.5277 13.3741 14.5171H13.3836C13.8283 14.5171 14.1888 14.8801 14.1888 15.3303C14.1897 15.7805 13.8302 16.1455 13.3864 16.1464ZM8.70661 11.8611C8.72553 12.3017 9.08603 12.6456 9.52128 12.6264C9.94706 12.6063 10.2867 12.2423 10.2678 11.8017C10.2574 11.3707 9.90732 11.0354 9.48154 11.0364C9.04629 11.0555 8.70566 11.4205 8.70661 11.8611ZM9.52514 16.1034C9.08989 16.1226 8.73034 15.7787 8.71047 15.3381C8.71047 14.8975 9.05015 14.5335 9.4854 14.5134C9.91118 14.5124 10.2622 14.8477 10.2717 15.2777C10.2916 15.7193 9.95092 16.0833 9.52514 16.1034ZM4.80835 11.8945C4.82727 12.3352 5.18777 12.68 5.62302 12.6599C6.0488 12.6407 6.38849 12.2758 6.36862 11.8352C6.35915 11.4041 6.00906 11.0689 5.58233 11.0698C5.14709 11.089 4.8074 11.4539 4.80835 11.8945ZM5.62676 16.1081C5.19152 16.1282 4.83196 15.7834 4.81209 15.3428C4.81115 14.9021 5.15178 14.5372 5.58702 14.518C6.01281 14.5171 6.36384 14.8523 6.37331 15.2834C6.39318 15.724 6.05349 16.0889 5.62676 16.1081Z" fill="#DADADA"/>
</svg>
