<svg width="21" height="23" viewBox="0 0 21 23" fill="none" xmlns="http://www.w3.org/2000/svg">
<path d="M11.7023 0.481271C11.0276 -0.160424 9.97236 -0.160424 9.29773 0.481271L0.82159 8.54377C0.29715 9.04263 0 9.7367 0 10.4628V20.2682C0 21.7267 1.17525 22.9091 2.625 22.9091H5.25C6.69975 22.9091 7.875 21.7267 7.875 20.2682V15.8666C7.875 15.3805 8.26676 14.9863 8.75 14.9863H12.25C12.7332 14.9863 13.125 15.3805 13.125 15.8666V20.2682C13.125 21.7267 14.3003 22.9091 15.75 22.9091H18.375C19.8247 22.9091 21 21.7267 21 20.2682V10.4628C21 9.7367 20.7029 9.04263 20.1784 8.54377L11.7023 0.481271Z" fill="#5669FF"/>
</svg>
