<svg width="30" height="30" viewBox="0 0 30 30" fill="none" xmlns="http://www.w3.org/2000/svg">
<path fill-rule="evenodd" clip-rule="evenodd" d="M10.6645 3.67096C13.3956 2.08409 16.7525 2.11183 19.458 3.74362C22.1368 5.40864 23.765 8.38022 23.7498 11.5768C23.6874 14.7524 21.9416 17.7375 19.7593 20.0451C18.4998 21.383 17.0908 22.566 15.5611 23.57C15.4035 23.6611 15.2309 23.7221 15.0519 23.75C14.8795 23.7427 14.7116 23.6917 14.5634 23.6018C12.228 22.0932 10.1792 20.1675 8.51542 17.9175C7.12324 16.0392 6.33229 13.77 6.25 11.418C6.24819 8.21531 7.93346 5.25784 10.6645 3.67096ZM12.2427 12.7434C12.7021 13.876 13.7865 14.6147 14.9895 14.6147C15.7776 14.6204 16.5352 14.3047 17.0935 13.738C17.6518 13.1713 17.9644 12.4007 17.9616 11.5979C17.9658 10.3725 17.2443 9.26533 16.1341 8.79341C15.0238 8.32148 13.7438 8.57788 12.8916 9.44287C12.0395 10.3079 11.7833 11.6108 12.2427 12.7434Z" fill="#5669FF"/>
<path opacity="0.4" d="M15 27.5C18.4518 27.5 21.25 26.9404 21.25 26.25C21.25 25.5596 18.4518 25 15 25C11.5482 25 8.75 25.5596 8.75 26.25C8.75 26.9404 11.5482 27.5 15 27.5Z" fill="#5669FF"/>
</svg>
