<svg width="24" height="24" viewBox="0 0 24 24" fill="none" xmlns="http://www.w3.org/2000/svg">
<path d="M11.9759 0.231689C5.45393 0.231689 0.166992 5.51863 0.166992 12.0406C0.166992 18.5625 5.45393 23.8494 11.9759 23.8494C18.4978 23.8494 23.7847 18.5625 23.7847 12.0406C23.7847 5.51863 18.4978 0.231689 11.9759 0.231689ZM12.9956 18.4431V20.1063H11.4047V18.4618C8.79412 18.1043 7.65093 15.9593 7.65093 15.9593L9.27593 14.5999C9.27593 14.5999 10.3135 16.4061 12.1904 16.4061C13.2271 16.4061 14.0136 15.8512 14.0136 14.903C14.0136 12.6865 8.04174 12.9554 8.04174 8.84338C8.04174 7.05588 9.45549 5.76806 11.4039 5.46338V3.80181H12.9947V5.46338C14.3532 5.64213 15.962 6.35713 15.962 7.89519V9.07494H13.8527V8.50294C13.8527 7.91306 13.1012 7.51981 12.2602 7.51981C11.1877 7.51981 10.4021 8.05607 10.4021 8.80682C10.4021 11.0769 16.3739 10.5228 16.3739 14.8315C16.3739 16.6028 15.0512 18.1384 12.9956 18.4431Z" fill="#F2583E"/>
</svg>
