<svg width="23" height="23" viewBox="0 0 23 23" fill="none" xmlns="http://www.w3.org/2000/svg">
<path fill-rule="evenodd" clip-rule="evenodd" d="M16.5351 7.09197C16.5351 9.95023 14.282 12.2673 11.5026 12.2673C8.7232 12.2673 6.47007 9.95023 6.47007 7.09197C6.47007 4.2337 8.7232 1.91663 11.5026 1.91663C14.282 1.91663 16.5351 4.2337 16.5351 7.09197ZM15.8221 15.1832C17.4222 15.5072 18.4668 16.0358 18.9145 16.8885C19.2508 17.5539 19.2508 18.346 18.9145 19.0115C18.4668 19.8641 17.4637 20.4268 15.8055 20.7167C15.0666 20.8657 14.3187 20.9625 13.567 21.0066C12.8706 21.0833 12.1741 21.0833 11.4694 21.0833H10.2009C9.93562 21.0492 9.67861 21.0321 9.42988 21.0321C8.67813 20.9935 7.93005 20.8994 7.19137 20.7508C5.59125 20.4438 4.54661 19.8982 4.09891 19.0456C3.92608 18.7153 3.83496 18.3463 3.8336 17.9713C3.83 17.5939 3.91836 17.2217 4.09062 16.8885C4.53003 16.0358 5.57467 15.4816 7.19137 15.1832C7.9333 15.0376 8.68394 14.9436 9.43817 14.9019C10.8179 14.7907 12.2039 14.7907 13.5836 14.9019C14.3349 14.9457 15.0826 15.0397 15.8221 15.1832Z" fill="#5669FF"/>
</svg>
