<svg width="186" height="58" viewBox="0 0 186 58" fill="none" xmlns="http://www.w3.org/2000/svg">
<path d="M87.515 15.41V21.575H79.145V47H71.45V21.575H63.08V15.41H87.515ZM95.2469 19.28C93.8969 19.28 92.7869 18.89 91.9169 18.11C91.0769 17.3 90.6569 16.31 90.6569 15.14C90.6569 13.94 91.0769 12.95 91.9169 12.17C92.7869 11.36 93.8969 10.955 95.2469 10.955C96.5669 10.955 97.6469 11.36 98.4869 12.17C99.3569 12.95 99.7919 13.94 99.7919 15.14C99.7919 16.31 99.3569 17.3 98.4869 18.11C97.6469 18.89 96.5669 19.28 95.2469 19.28ZM99.0719 21.89V47H91.3769V21.89H99.0719ZM119.993 47L112.343 36.47V47H104.648V13.7H112.343V32.105L119.948 21.89H129.443L119.003 34.49L129.533 47H119.993ZM156.136 34.04C156.136 34.76 156.091 35.51 156.001 36.29H138.586C138.706 37.85 139.201 39.05 140.071 39.89C140.971 40.7 142.066 41.105 143.356 41.105C145.276 41.105 146.611 40.295 147.361 38.675H155.551C155.131 40.325 154.366 41.81 153.256 43.13C152.176 44.45 150.811 45.485 149.161 46.235C147.511 46.985 145.666 47.36 143.626 47.36C141.166 47.36 138.976 46.835 137.056 45.785C135.136 44.735 133.636 43.235 132.556 41.285C131.476 39.335 130.936 37.055 130.936 34.445C130.936 31.835 131.461 29.555 132.511 27.605C133.591 25.655 135.091 24.155 137.011 23.105C138.931 22.055 141.136 21.53 143.626 21.53C146.056 21.53 148.216 22.04 150.106 23.06C151.996 24.08 153.466 25.535 154.516 27.425C155.596 29.315 156.136 31.52 156.136 34.04ZM148.261 32.015C148.261 30.695 147.811 29.645 146.911 28.865C146.011 28.085 144.886 27.695 143.536 27.695C142.246 27.695 141.151 28.07 140.251 28.82C139.381 29.57 138.841 30.635 138.631 32.015H148.261ZM174.19 40.475V47H170.275C167.485 47 165.31 46.325 163.75 44.975C162.19 43.595 161.41 41.36 161.41 38.27V28.28H158.35V21.89H161.41V15.77H169.105V21.89H174.145V28.28H169.105V38.36C169.105 39.11 169.285 39.65 169.645 39.98C170.005 40.31 170.605 40.475 171.445 40.475H174.19Z" fill="#00F8FF"/>
<path d="M14.22 47.315C11.91 47.315 9.84 46.94 8.01 46.19C6.18 45.44 4.71 44.33 3.6 42.86C2.52 41.39 1.95 39.62 1.89 37.55H10.08C10.2 38.72 10.605 39.62 11.295 40.25C11.985 40.85 12.885 41.15 13.995 41.15C15.135 41.15 16.035 40.895 16.695 40.385C17.355 39.845 17.685 39.11 17.685 38.18C17.685 37.4 17.415 36.755 16.875 36.245C16.365 35.735 15.72 35.315 14.94 34.985C14.19 34.655 13.11 34.28 11.7 33.86C9.66 33.23 7.995 32.6 6.705 31.97C5.415 31.34 4.305 30.41 3.375 29.18C2.445 27.95 1.98 26.345 1.98 24.365C1.98 21.425 3.045 19.13 5.175 17.48C7.305 15.8 10.08 14.96 13.5 14.96C16.98 14.96 19.785 15.8 21.915 17.48C24.045 19.13 25.185 21.44 25.335 24.41H17.01C16.95 23.39 16.575 22.595 15.885 22.025C15.195 21.425 14.31 21.125 13.23 21.125C12.3 21.125 11.55 21.38 10.98 21.89C10.41 22.37 10.125 23.075 10.125 24.005C10.125 25.025 10.605 25.82 11.565 26.39C12.525 26.96 14.025 27.575 16.065 28.235C18.105 28.925 19.755 29.585 21.015 30.215C22.305 30.845 23.415 31.76 24.345 32.96C25.275 34.16 25.74 35.705 25.74 37.595C25.74 39.395 25.275 41.03 24.345 42.5C23.445 43.97 22.125 45.14 20.385 46.01C18.645 46.88 16.59 47.315 14.22 47.315Z" fill="#5669FF"/>
<path d="M56.4459 35.6101L56.5039 35.639C57.8507 36.3921 58.372 38.0865 57.6624 39.4478C55.2005 44.1544 50.2477 47.3694 44.5563 47.326C36.6201 47.268 30.1178 40.8091 30.0019 32.873C29.8716 24.6762 36.4753 18 44.6576 18C49.2774 18 53.4047 20.1433 56.0839 23.4887L50.8414 26.3271C49.1615 24.6907 46.8299 23.7059 44.2811 23.8073C39.6034 23.9955 35.8381 27.8622 35.7802 32.5544C35.7223 37.5072 39.7193 41.5332 44.6432 41.5332C48.0609 41.5332 51.0297 39.6071 52.5069 36.7686C53.2599 35.3494 55.0412 34.828 56.4459 35.6101Z" fill="#5669FF"/>
<path d="M57.7057 25.9795C58.3574 27.2539 57.894 28.818 56.6341 29.5131L53.4191 31.2944L45.454 35.7114C44.2086 36.4065 42.6445 36.0589 41.8046 34.9004L41.7756 34.8569C40.7763 33.4812 41.2108 31.5261 42.7169 30.7151L50.8558 26.3126L56.0982 23.4741C56.7065 24.2561 57.2423 25.0961 57.7057 25.9795Z" fill="#00F8FF"/>
</svg>
