<svg width="202" height="202" viewBox="0 0 202 202" fill="none" xmlns="http://www.w3.org/2000/svg">
<circle opacity="0.5" cx="101" cy="101" r="101" fill="#EBF5FC"/>
<mask id="mask0_433_4929" style="mask-type:alpha" maskUnits="userSpaceOnUse" x="0" y="0" width="202" height="202">
<circle cx="101" cy="101" r="101" fill="#DADADA"/>
</mask>
<g mask="url(#mask0_433_4929)">
<g clip-path="url(#clip0_433_4929)">
<path d="M103.931 185.313H39.6949C33.4864 185.313 28.4536 180.28 28.4536 174.072V162.83H114.729L103.931 185.313Z" fill="#D3DCFB"/>
<path d="M174.607 95.379V142.607V174.071H39.6949C33.4864 174.071 28.4536 169.038 28.4536 162.829V95.379L107.151 67.2744L174.607 95.379Z" fill="#EBF5FC"/>
<path d="M48.3056 117.863H42.3335C40.8785 117.863 39.6987 116.683 39.6987 115.228V109.256C39.6987 107.801 40.8785 106.621 42.3335 106.621H48.3056C49.7606 106.621 50.9404 107.801 50.9404 109.256V115.228C50.9404 116.683 49.7606 117.863 48.3056 117.863Z" fill="#3C58A0"/>
<path d="M70.789 117.863H64.8169C63.3619 117.863 62.1821 116.683 62.1821 115.228V109.256C62.1821 107.801 63.3619 106.621 64.8169 106.621H70.789C72.244 106.621 73.4238 107.801 73.4238 109.256V115.228C73.4238 116.683 72.244 117.863 70.789 117.863Z" fill="#3C58A0"/>
<path d="M93.2724 117.863H87.3003C85.8453 117.863 84.6655 116.683 84.6655 115.228V109.256C84.6655 107.801 85.8453 106.621 87.3003 106.621H93.2724C94.7274 106.621 95.9072 107.801 95.9072 109.256V115.228C95.9072 116.683 94.7278 117.863 93.2724 117.863Z" fill="#3C58A0"/>
<path d="M115.756 117.863H109.784C108.329 117.863 107.149 116.683 107.149 115.228V109.256C107.149 107.801 108.329 106.621 109.784 106.621H115.756C117.211 106.621 118.391 107.801 118.391 109.256V115.228C118.391 116.683 117.211 117.863 115.756 117.863Z" fill="#3C58A0"/>
<path d="M138.236 117.863H132.264C130.809 117.863 129.629 116.683 129.629 115.228V109.256C129.629 107.801 130.809 106.621 132.264 106.621H138.236C139.691 106.621 140.871 107.801 140.871 109.256V115.228C140.871 116.683 139.691 117.863 138.236 117.863Z" fill="#3C58A0"/>
<path d="M160.719 117.863H154.747C153.292 117.863 152.112 116.683 152.112 115.228V109.256C152.112 107.801 153.292 106.621 154.747 106.621H160.719C162.174 106.621 163.354 107.801 163.354 109.256V115.228C163.354 116.683 162.174 117.863 160.719 117.863Z" fill="#3C58A0"/>
<path d="M48.3056 140.346H42.3335C40.8785 140.346 39.6987 139.166 39.6987 137.711V131.739C39.6987 130.284 40.8785 129.104 42.3335 129.104H48.3056C49.7606 129.104 50.9404 130.284 50.9404 131.739V137.711C50.9404 139.166 49.7606 140.346 48.3056 140.346Z" fill="#3C58A0"/>
<path d="M70.789 140.346H64.8169C63.3619 140.346 62.1821 139.166 62.1821 137.711V131.739C62.1821 130.284 63.3619 129.104 64.8169 129.104H70.789C72.244 129.104 73.4238 130.284 73.4238 131.739V137.711C73.4238 139.166 72.244 140.346 70.789 140.346Z" fill="#3C58A0"/>
<path d="M93.2724 140.346H87.3003C85.8453 140.346 84.6655 139.166 84.6655 137.711V131.739C84.6655 130.284 85.8453 129.104 87.3003 129.104H93.2724C94.7274 129.104 95.9072 130.284 95.9072 131.739V137.711C95.9072 139.166 94.7278 140.346 93.2724 140.346Z" fill="#3C58A0"/>
<path d="M118.391 140.346V131.915C118.391 130.362 117.133 129.104 115.581 129.104H109.96C108.408 129.104 107.149 130.362 107.149 131.915V137.536C107.149 139.088 108.408 140.346 109.96 140.346H118.391Z" fill="#3C58A0"/>
<path d="M48.3056 162.83H42.3335C40.8785 162.83 39.6987 161.65 39.6987 160.195V154.223C39.6987 152.768 40.8785 151.588 42.3335 151.588H48.3056C49.7606 151.588 50.9404 152.768 50.9404 154.223V160.195C50.9404 161.65 49.7606 162.83 48.3056 162.83Z" fill="#3C58A0"/>
<path d="M70.789 162.83H64.8169C63.3619 162.83 62.1821 161.65 62.1821 160.195V154.223C62.1821 152.768 63.3619 151.588 64.8169 151.588H70.789C72.244 151.588 73.4238 152.768 73.4238 154.223V160.195C73.4238 161.65 72.244 162.83 70.789 162.83Z" fill="#3C58A0"/>
<path d="M93.2724 162.83H87.3003C85.8453 162.83 84.6655 161.65 84.6655 160.195V154.223C84.6655 152.768 85.8453 151.588 87.3003 151.588H93.2724C94.7274 151.588 95.9072 152.768 95.9072 154.223V160.195C95.9072 161.65 94.7278 162.83 93.2724 162.83Z" fill="#3C58A0"/>
<path d="M160.64 106.621H154.827C154.475 106.621 154.14 106.69 153.832 106.811C154.838 107.208 155.55 108.187 155.55 109.335V115.148C155.55 116.295 154.837 117.274 153.832 117.671C154.14 117.793 154.475 117.862 154.827 117.862H160.64C162.139 117.862 163.354 116.647 163.354 115.148V109.335C163.354 107.836 162.139 106.621 160.64 106.621Z" fill="#2A428C"/>
<path d="M138.156 106.621H132.343C131.992 106.621 131.657 106.69 131.348 106.811C132.354 107.208 133.067 108.187 133.067 109.335V115.148C133.067 116.295 132.354 117.274 131.348 117.671C131.657 117.793 131.992 117.862 132.343 117.862H138.156C139.656 117.862 140.871 116.647 140.871 115.148V109.335C140.871 107.836 139.656 106.621 138.156 106.621Z" fill="#2A428C"/>
<path d="M115.676 106.621H109.863C109.512 106.621 109.177 106.69 108.868 106.811C109.874 107.208 110.587 108.187 110.587 109.335V115.148C110.587 116.295 109.874 117.274 108.868 117.671C109.177 117.793 109.512 117.862 109.863 117.862H115.676C117.176 117.862 118.391 116.647 118.391 115.148V109.335C118.391 107.836 117.175 106.621 115.676 106.621Z" fill="#2A428C"/>
<path d="M93.1931 106.621H87.3801C87.0283 106.621 86.6934 106.69 86.3848 106.811C87.3909 107.208 88.104 108.187 88.104 109.335V115.148C88.104 116.295 87.3909 117.274 86.3848 117.671C86.6934 117.793 87.0283 117.862 87.3801 117.862H93.1931C94.6922 117.862 95.9075 116.647 95.9075 115.148V109.335C95.9072 107.836 94.6922 106.621 93.1931 106.621Z" fill="#2A428C"/>
<path d="M70.7096 106.621H64.8967C64.5449 106.621 64.21 106.69 63.9014 106.811C64.9075 107.208 65.6202 108.187 65.6202 109.335V115.148C65.6202 116.295 64.9072 117.274 63.9014 117.671C64.21 117.793 64.5449 117.862 64.8967 117.862H70.7096C72.2088 117.862 73.4241 116.647 73.4241 115.148V109.335C73.4241 107.836 72.2088 106.621 70.7096 106.621Z" fill="#2A428C"/>
<path d="M48.2262 106.621H42.4133C42.0615 106.621 41.7266 106.69 41.418 106.811C42.4241 107.208 43.1372 108.187 43.1372 109.335V115.148C43.1372 116.295 42.4241 117.274 41.418 117.671C41.7266 117.793 42.0615 117.862 42.4133 117.862H48.2262C49.7254 117.862 50.9407 116.647 50.9407 115.148V109.335C50.9404 107.836 49.7251 106.621 48.2262 106.621Z" fill="#2A428C"/>
<path d="M48.2262 129.104H42.4133C42.0615 129.104 41.7266 129.173 41.418 129.295C42.4241 129.692 43.1372 130.671 43.1372 131.818V137.632C43.1372 138.779 42.4241 139.758 41.418 140.155C41.7266 140.277 42.0615 140.346 42.4133 140.346H48.2262C49.7254 140.346 50.9407 139.131 50.9407 137.632V131.819C50.9404 130.32 49.7251 129.104 48.2262 129.104Z" fill="#2A428C"/>
<path d="M48.2262 151.588H42.4133C42.0615 151.588 41.7266 151.657 41.418 151.779C42.4241 152.176 43.1372 153.155 43.1372 154.302V160.115C43.1372 161.263 42.4241 162.242 41.418 162.639C41.7266 162.761 42.0615 162.83 42.4133 162.83H48.2262C49.7254 162.83 50.9407 161.615 50.9407 160.116V154.302C50.9404 152.803 49.7251 151.588 48.2262 151.588Z" fill="#2A428C"/>
<path d="M70.7096 129.104H64.8967C64.5449 129.104 64.21 129.173 63.9014 129.295C64.9075 129.692 65.6202 130.671 65.6202 131.818V137.632C65.6202 138.779 64.9072 139.758 63.9014 140.155C64.21 140.277 64.5449 140.346 64.8967 140.346H70.7096C72.2088 140.346 73.4241 139.131 73.4241 137.632V131.819C73.4241 130.32 72.2088 129.104 70.7096 129.104Z" fill="#2A428C"/>
<path d="M70.7096 151.588H64.8967C64.5449 151.588 64.21 151.657 63.9014 151.779C64.9075 152.176 65.6202 153.155 65.6202 154.302V160.115C65.6202 161.263 64.9072 162.242 63.9014 162.639C64.21 162.761 64.5449 162.83 64.8967 162.83H70.7096C72.2088 162.83 73.4241 161.615 73.4241 160.116V154.302C73.4241 152.803 72.2088 151.588 70.7096 151.588Z" fill="#2A428C"/>
<path d="M93.1931 129.104H87.3801C87.0283 129.104 86.6934 129.173 86.3848 129.295C87.3909 129.692 88.104 130.671 88.104 131.818V137.632C88.104 138.779 87.3909 139.758 86.3848 140.155C86.6934 140.277 87.0283 140.346 87.3801 140.346H93.1931C94.6922 140.346 95.9075 139.131 95.9075 137.632V131.819C95.9072 130.32 94.6922 129.104 93.1931 129.104Z" fill="#2A428C"/>
<path d="M118.391 140.346V131.818C118.391 130.319 117.176 129.104 115.676 129.104H109.863C109.512 129.104 109.177 129.173 108.868 129.295C109.874 129.692 110.587 130.671 110.587 131.818V137.632C110.587 138.779 109.874 139.758 108.868 140.155C109.177 140.277 109.512 140.346 109.863 140.346H118.391V140.346Z" fill="#2A428C"/>
<path d="M93.1931 151.588H87.3801C87.0283 151.588 86.6934 151.657 86.3848 151.779C87.3909 152.176 88.104 153.155 88.104 154.302V160.115C88.104 161.263 87.3909 162.242 86.3848 162.639C86.6934 162.761 87.0283 162.83 87.3801 162.83H93.1931C94.6922 162.83 95.9075 161.615 95.9075 160.116V154.302C95.9072 152.803 94.6922 151.588 93.1931 151.588Z" fill="#2A428C"/>
<path d="M166.798 92.1255V142.607V174.071H174.607V142.607V95.3791L166.798 92.1255Z" fill="#D3DCFB"/>
<path d="M174.607 95.3791V67.2745C174.607 61.066 169.574 56.0332 163.366 56.0332H39.6949C33.4864 56.0332 28.4536 61.066 28.4536 67.2745V95.3791H174.607Z" fill="#FF4155"/>
<path d="M63.8748 69.8193H56.5577C55.1521 69.8193 54.0132 68.6801 54.0132 67.2748C54.0132 65.8694 55.1524 64.7302 56.5577 64.7302H63.8748C65.2805 64.7302 66.4194 65.8694 66.4194 67.2748C66.4194 68.6801 65.2802 69.8193 63.8748 69.8193Z" fill="#E80054"/>
<path d="M81.8514 69.8193H74.5343C73.1286 69.8193 71.9897 68.6801 71.9897 67.2748C71.9897 65.8694 73.129 64.7302 74.5343 64.7302H81.8514C83.2571 64.7302 84.396 65.8694 84.396 67.2748C84.396 68.6801 83.2571 69.8193 81.8514 69.8193Z" fill="#E80054"/>
<path d="M128.519 69.8193H121.201C119.796 69.8193 118.657 68.6801 118.657 67.2748C118.657 65.8694 119.796 64.7302 121.201 64.7302H128.519C129.924 64.7302 131.063 65.8694 131.063 67.2748C131.063 68.6801 129.924 69.8193 128.519 69.8193Z" fill="#E80054"/>
<path d="M146.495 69.8193H139.178C137.772 69.8193 136.633 68.6801 136.633 67.2748C136.633 65.8694 137.773 64.7302 139.178 64.7302H146.495C147.901 64.7302 149.04 65.8694 149.04 67.2748C149.04 68.6801 147.901 69.8193 146.495 69.8193Z" fill="#E80054"/>
<path d="M76.2307 65.8695C76.2307 69.7499 73.0851 72.8955 69.2047 72.8955C65.3243 72.8955 62.1787 69.7499 62.1787 65.8695V51.8172C62.1784 47.9369 65.324 44.7913 69.2044 44.7913C73.0847 44.7913 76.2303 47.9369 76.2303 51.8172V65.8695H76.2307Z" fill="#EBF5FC"/>
<path d="M140.875 65.8695C140.875 69.7499 137.729 72.8955 133.849 72.8955C129.968 72.8955 126.822 69.7499 126.822 65.8695V51.8172C126.822 47.9369 129.968 44.7913 133.848 44.7913C137.729 44.7913 140.874 47.9369 140.874 51.8172V65.8695H140.875Z" fill="#EBF5FC"/>
<path d="M133.848 44.7913C132.405 44.7913 131.066 45.2273 129.95 45.973C131.835 47.233 133.078 49.3794 133.078 51.8176V65.8695C133.078 68.3074 131.835 70.454 129.95 71.7141C131.065 72.4594 132.405 72.8958 133.848 72.8958C137.728 72.8958 140.874 69.7502 140.874 65.8699V51.8172C140.874 47.9369 137.729 44.7913 133.848 44.7913V44.7913Z" fill="#D3DCFB"/>
<path d="M69.2043 44.7913C67.7618 44.7913 66.422 45.2273 65.3062 45.973C67.1917 47.233 68.4343 49.3794 68.4343 51.8176V65.8695C68.4343 68.3074 67.1917 70.454 65.3062 71.7141C66.4217 72.4594 67.7618 72.8958 69.2043 72.8958C73.0847 72.8958 76.2303 69.7502 76.2303 65.8699V51.8172C76.2306 47.9369 73.085 44.7913 69.2043 44.7913V44.7913Z" fill="#D3DCFB"/>
<path d="M163.366 56.033H155.559C161.768 56.033 166.8 61.0657 166.8 67.2743V95.3792H174.607V67.2746C174.607 61.0661 169.574 56.033 163.366 56.033Z" fill="#E80054"/>
<path d="M28.4531 81.5925H174.607V86.6819H28.4531V81.5925Z" fill="#E80054"/>
<path d="M143.687 213.417C166.969 213.417 185.843 194.543 185.843 171.261C185.843 147.978 166.969 129.104 143.687 129.104C120.404 129.104 101.53 147.978 101.53 171.261C101.53 194.543 120.404 213.417 143.687 213.417Z" fill="#4FABF7"/>
<path d="M143.687 202.176C160.761 202.176 174.602 188.335 174.602 171.261C174.602 154.187 160.761 140.346 143.687 140.346C126.613 140.346 112.772 154.187 112.772 171.261C112.772 188.335 126.613 202.176 143.687 202.176Z" fill="#EBF5FC"/>
<path d="M143.687 168.184C142.281 168.184 141.142 167.045 141.142 165.64V151.588C141.142 150.182 142.281 149.043 143.687 149.043C145.092 149.043 146.231 150.182 146.231 151.588V165.64C146.231 167.045 145.092 168.184 143.687 168.184Z" fill="#3C58A0"/>
<path d="M157.739 173.805H149.307C147.902 173.805 146.763 172.666 146.763 171.261C146.763 169.856 147.902 168.716 149.307 168.716H157.739C159.145 168.716 160.283 169.856 160.283 171.261C160.283 172.666 159.144 173.805 157.739 173.805Z" fill="#3C58A0"/>
<path d="M143.687 129.104C142.371 129.104 141.07 129.168 139.785 129.286C161.238 131.255 178.039 149.294 178.039 171.261C178.039 193.227 161.237 211.267 139.785 213.236C141.07 213.354 142.371 213.417 143.686 213.417C166.969 213.417 185.843 194.543 185.843 171.261C185.843 147.979 166.969 129.104 143.687 129.104Z" fill="#1886EA"/>
<path d="M143.687 140.346C142.366 140.346 141.065 140.429 139.788 140.59C155.021 142.507 166.803 155.508 166.803 171.261C166.803 187.014 155.021 200.015 139.788 201.932C141.065 202.092 142.366 202.176 143.687 202.176C160.76 202.176 174.602 188.335 174.602 171.261C174.602 154.187 160.76 140.346 143.687 140.346Z" fill="#D3DCFB"/>
<path d="M143.686 176.882C146.791 176.882 149.307 174.365 149.307 171.261C149.307 168.156 146.791 165.64 143.686 165.64C140.582 165.64 138.065 168.156 138.065 171.261C138.065 174.365 140.582 176.882 143.686 176.882Z" fill="#FFDD40"/>
</g>
</g>
<defs>
<clipPath id="clip0_433_4929">
<rect width="168.626" height="168.626" fill="white" transform="translate(22.835 44.7913)"/>
</clipPath>
</defs>
</svg>
